<?xml version="1.0" encoding="utf-8"?>
<!-- Generator: Adobe Illustrator 16.0.0, SVG Export Plug-In . SVG Version: 6.00 Build 0)  -->
<!DOCTYPE svg PUBLIC "-//W3C//DTD SVG 1.1//EN" "http://www.w3.org/Graphics/SVG/1.1/DTD/svg11.dtd">
<svg version="1.1" id="Layer_1" xmlns="http://www.w3.org/2000/svg" xmlns:xlink="http://www.w3.org/1999/xlink" x="0px" y="0px"
	 width="288px" height="111px" viewBox="0 0 288 111" enable-background="new 0 0 288 111" xml:space="preserve">
<path fill="#F16729" d="M92.229,34.328L125.361,27L63.627,8.514L5.724,26.654l28.601,7.674v24.394c0,0,25.463-31.064,57.903,0
	V34.328z"/>
<path fill="#F16729" d="M19.328,29.095v10.812c0,0,6.805,5.93,0,9.072l3.024,19.882h-4.941l-1.394-4.714l-3.138,4.714h-1.577
	l4.887-19.882c0,0-5.697-3.143,0.638-9.418V27.524l4.768-1.043L19.328,29.095z"/>
<path fill="none" stroke="#F06829" stroke-miterlimit="10" d="M94.482,71.135c0,17.354-14.063,31.407-31.408,31.407
	c-17.349,0-31.408-14.054-31.408-31.407c0-17.347,14.059-31.406,31.408-31.406C80.418,39.729,94.482,53.788,94.482,71.135z"/>
<g>
	<g>
		<path fill="#303283" d="M87.248,83.448c-0.044-0.05-0.114-0.079-0.188-0.079H39.088c-0.074,0-0.143,0.029-0.188,0.079
			c-0.044,0.06-0.064,0.129-0.06,0.197c0.01,0.05,0.731,4.487,6.35,4.487h35.766c5.619,0,6.34-4.438,6.35-4.487
			C87.317,83.577,87.292,83.508,87.248,83.448z M66.682,86.581h-7.215v-1.66h7.215V86.581z"/>
		<path fill="#303283" d="M44.069,81.64h38.009c0.549,0,0.994-0.444,0.994-0.998V57.301c0-0.549-0.445-0.998-0.994-0.998H44.069
			c-0.548,0-0.993,0.449-0.993,0.998v23.341C43.076,81.195,43.521,81.64,44.069,81.64z M46.56,59.789h33.028v18.362H46.56V59.789
			L46.56,59.789z"/>
	</g>
</g>
<path fill="#303283" d="M63.074,62.486c3.399,0,6.103,2.698,6.103,6.108c0,3.39-2.703,6.098-6.103,6.098
	c-3.4,0-6.098-2.708-6.098-6.098C56.977,65.185,59.674,62.486,63.074,62.486z M63.074,61.617c-3.834,0-6.972,3.143-6.972,6.978
	c0,3.824,3.138,6.967,6.972,6.967s6.972-3.143,6.972-6.967C70.046,64.76,66.909,61.617,63.074,61.617L63.074,61.617z"/>
<path fill="#303283" d="M61.33,65.105v6.968l5.228-3.479L61.33,65.105z"/>
<g>
	<path fill="#303283" d="M116.328,34.2c3.079,0,5.727,1.117,7.946,3.345c2.214,2.229,3.326,4.946,3.326,8.153
		c0,3.177-1.097,5.866-3.281,8.064c-2.189,2.199-4.837,3.301-7.96,3.301c-3.266,0-5.984-1.131-8.144-3.39
		c-2.164-2.258-3.241-4.941-3.241-8.05c0-2.08,0.504-3.993,1.507-5.742c1.008-1.744,2.392-3.128,4.156-4.151
		C112.399,34.713,114.297,34.2,116.328,34.2z M116.288,38.256c-2.021,0-3.711,0.702-5.084,2.1c-1.374,1.398-2.061,3.183-2.061,5.342
		c0,2.407,0.865,4.314,2.594,5.712c1.344,1.097,2.881,1.641,4.62,1.641c1.967,0,3.637-0.707,5.021-2.13
		c1.384-1.418,2.075-3.172,2.075-5.253c0-2.07-0.697-3.824-2.09-5.262C119.97,38.973,118.28,38.256,116.288,38.256z"/>
	<path fill="#303283" d="M131.666,40.416h4.042v1.65c0.914-0.771,1.744-1.31,2.485-1.611c0.746-0.301,1.507-0.455,2.283-0.455
		c1.596,0,2.95,0.558,4.067,1.67c0.934,0.949,1.403,2.353,1.403,4.206v10.638h-3.997v-7.051c0-1.917-0.084-3.197-0.257-3.825
		c-0.173-0.633-0.469-1.112-0.904-1.443c-0.425-0.331-0.954-0.494-1.581-0.494c-0.82,0-1.522,0.271-2.105,0.82
		c-0.588,0.548-0.993,1.304-1.221,2.268c-0.119,0.504-0.173,1.591-0.173,3.266v6.458h-4.042V40.416z"/>
	<path fill="#303283" d="M150.016,34.2h4.042v22.315h-4.042V34.2z"/>
	<path fill="#303283" d="M159.908,33.785c0.702,0,1.314,0.257,1.818,0.771c0.515,0.514,0.762,1.136,0.762,1.863
		c0,0.721-0.247,1.334-0.751,1.843c-0.505,0.509-1.107,0.761-1.799,0.761c-0.722,0-1.334-0.257-1.839-0.776
		c-0.504-0.519-0.761-1.146-0.761-1.888c0-0.707,0.247-1.314,0.751-1.818S159.197,33.785,159.908,33.785z M157.883,40.416h4.042
		v16.099h-4.042V40.416z"/>
	<path fill="#303283" d="M166.204,40.416h4.042v1.65c0.909-0.771,1.739-1.31,2.49-1.611c0.741-0.301,1.502-0.455,2.283-0.455
		c1.591,0,2.945,0.558,4.062,1.67c0.93,0.949,1.403,2.353,1.403,4.206v10.638h-4.002v-7.051c0-1.917-0.079-3.197-0.257-3.825
		c-0.168-0.633-0.465-1.112-0.899-1.443c-0.426-0.331-0.949-0.494-1.582-0.494c-0.82,0-1.521,0.271-2.104,0.82
		c-0.583,0.548-0.998,1.304-1.216,2.268c-0.128,0.504-0.178,1.591-0.178,3.266v6.458h-4.042V40.416z"/>
	<path fill="#303283" d="M201.13,49.637h-12.986c0.188,1.142,0.692,2.051,1.503,2.728c0.82,0.677,1.857,1.018,3.122,1.018
		c1.503,0,2.797-0.534,3.885-1.586l3.409,1.596c-0.85,1.206-1.868,2.095-3.054,2.673s-2.589,0.865-4.21,0.865
		c-2.53,0-4.586-0.796-6.177-2.392c-1.592-1.591-2.382-3.587-2.382-5.984c0-2.456,0.79-4.497,2.372-6.118
		c1.591-1.625,3.567-2.436,5.959-2.436c2.53,0,4.596,0.811,6.187,2.436c1.592,1.621,2.382,3.765,2.382,6.429L201.13,49.637z
		 M197.088,46.455c-0.267-0.899-0.801-1.631-1.581-2.194c-0.791-0.558-1.7-0.84-2.738-0.84c-1.126,0-2.114,0.316-2.965,0.944
		c-0.533,0.395-1.027,1.092-1.482,2.09H197.088z"/>
	<path fill="#303283" d="M225.955,37.708l-3.063,2.708c-1.077-1.497-2.174-2.249-3.301-2.249c-0.543,0-0.988,0.144-1.324,0.435
		c-0.355,0.292-0.523,0.618-0.523,0.983s0.118,0.711,0.365,1.038c0.336,0.435,1.354,1.364,3.044,2.797
		c1.581,1.319,2.54,2.154,2.876,2.5c0.84,0.85,1.433,1.66,1.789,2.431c0.346,0.776,0.523,1.621,0.523,2.54
		c0,1.789-0.612,3.262-1.848,4.428c-1.235,1.161-2.847,1.744-4.833,1.744c-1.552,0-2.905-0.38-4.052-1.141
		c-1.156-0.756-2.135-1.952-2.955-3.578l3.479-2.105c1.048,1.927,2.254,2.886,3.617,2.886c0.712,0,1.314-0.203,1.799-0.618
		s0.722-0.895,0.722-1.438c0-0.494-0.178-0.988-0.544-1.478c-0.365-0.494-1.176-1.25-2.421-2.268
		c-2.372-1.932-3.904-3.424-4.596-4.472c-0.691-1.052-1.038-2.1-1.038-3.147c0-1.507,0.573-2.802,1.729-3.884
		c1.146-1.082,2.57-1.621,4.26-1.621c1.087,0,2.125,0.252,3.104,0.756C223.742,35.46,224.81,36.374,225.955,37.708z"/>
	<path fill="#303283" d="M230.481,34.2h4.043v12.853l5.949-6.636h5.069l-6.938,7.713l7.768,8.385h-5.01l-6.839-7.417v7.417h-4.043
		V34.2z"/>
	<path fill="#303283" d="M250.218,33.785c0.702,0,1.314,0.257,1.818,0.771c0.504,0.514,0.761,1.136,0.761,1.863
		c0,0.721-0.247,1.334-0.751,1.843c-0.504,0.509-1.106,0.761-1.799,0.761c-0.721,0-1.334-0.257-1.838-0.776
		c-0.504-0.519-0.761-1.146-0.761-1.888c0-0.707,0.247-1.314,0.751-1.818S249.506,33.785,250.218,33.785z M248.192,40.416h4.042
		v16.099h-4.042V40.416z"/>
	<path fill="#303283" d="M256.068,34.2h4.042v22.315h-4.042V34.2z"/>
	<path fill="#303283" d="M263.936,34.2h4.042v22.315h-4.042V34.2z"/>
	<path fill="#303283" d="M282.109,42.665l-2.5,2.5c-1.018-1.003-1.937-1.507-2.768-1.507c-0.454,0-0.81,0.094-1.067,0.287
		c-0.257,0.192-0.385,0.43-0.385,0.721c0,0.212,0.089,0.415,0.247,0.598c0.158,0.183,0.563,0.43,1.205,0.746l1.482,0.741
		c1.552,0.766,2.629,1.551,3.212,2.352c0.584,0.8,0.87,1.734,0.87,2.812c0,1.428-0.523,2.624-1.571,3.583
		c-1.058,0.954-2.461,1.434-4.229,1.434c-2.353,0-4.221-0.915-5.624-2.753l2.491-2.708c0.474,0.554,1.027,0.999,1.66,1.339
		c0.632,0.341,1.205,0.509,1.699,0.509c0.524,0,0.959-0.128,1.285-0.385c0.326-0.252,0.484-0.548,0.484-0.885
		c0-0.623-0.583-1.23-1.76-1.823l-1.363-0.677c-2.6-1.314-3.904-2.955-3.904-4.932c0-1.27,0.494-2.357,1.473-3.261
		c0.979-0.899,2.233-1.354,3.766-1.354c1.048,0,2.026,0.232,2.955,0.687C280.687,41.147,281.468,41.81,282.109,42.665z"/>
</g>
<g>
	<g>
		<path fill="#F16729" d="M126.28,65.105l-3.771,4.902h-6.73v13.925h-5.821V70.008h-8.84l3.77-4.902H126.28z"/>
		<path fill="#F16729" d="M152.872,83.933h-7.795l-4.19-4.981h-8.949v4.981h-5.826v-9.616h16.376c0.899,0,1.66-0.188,2.283-0.563
			c0.618-0.375,0.929-0.899,0.929-1.552c0-0.73-0.286-1.284-0.845-1.65c-0.563-0.355-1.354-0.543-2.367-0.543h-16.376l3.795-4.902
			h12.102c1.067,0,2.179,0.099,3.321,0.297c1.146,0.197,2.188,0.554,3.123,1.058c0.941,0.504,1.712,1.195,2.325,2.056
			c0.612,0.859,0.909,1.967,0.909,3.32c0,0.731-0.109,1.423-0.337,2.085c-0.227,0.652-0.543,1.245-0.968,1.77
			c-0.425,0.523-0.939,0.969-1.552,1.334c-0.605,0.365-1.297,0.623-2.063,0.781c0.316,0.236,0.672,0.553,1.067,0.929
			c0.396,0.375,0.919,0.89,1.579,1.542L152.872,83.933z"/>
		<path fill="#F16729" d="M162.923,83.933l3.509-4.833h4.733c0.563,0,1.146,0,1.759,0c0.604,0,1.137,0.02,1.592,0.05
			c-0.267-0.336-0.573-0.761-0.919-1.275c-0.347-0.514-0.683-0.998-0.999-1.452l-3.38-4.981l-8.835,12.492h-6.888l12.066-17.019
			c0.396-0.543,0.89-1.037,1.492-1.463c0.603-0.435,1.364-0.651,2.283-0.651c0.88,0,1.621,0.207,2.204,0.603
			c0.593,0.405,1.097,0.909,1.512,1.512l11.761,17.019H162.923z"/>
		<path fill="#F16729" d="M192.809,83.933h-5.831V65.105h5.831V83.933z"/>
		<path fill="#F16729" d="M215.51,84.249c-0.376,0-0.741-0.06-1.107-0.188c-0.365-0.118-0.771-0.395-1.226-0.83l-11.533-10.356
			v11.059h-5.297V68.317c0-0.622,0.089-1.156,0.267-1.601c0.178-0.455,0.415-0.82,0.712-1.097c0.286-0.287,0.622-0.494,1.008-0.623
			s0.781-0.197,1.196-0.197c0.355,0,0.721,0.059,1.087,0.188c0.365,0.118,0.78,0.396,1.245,0.83l11.543,10.357V65.105h5.317v15.596
			c0,0.622-0.089,1.156-0.268,1.601c-0.178,0.455-0.415,0.82-0.701,1.117c-0.297,0.286-0.633,0.504-1.028,0.632
			C216.33,84.18,215.925,84.249,215.51,84.249z"/>
		<path fill="#F16729" d="M228.061,83.933h-5.821V65.105h5.821V83.933z"/>
		<path fill="#F16729" d="M250.781,84.249c-0.386,0-0.751-0.06-1.117-0.188c-0.365-0.118-0.771-0.395-1.225-0.83l-11.534-10.356
			v11.059h-5.297V68.317c0-0.622,0.089-1.156,0.267-1.601c0.179-0.455,0.415-0.82,0.712-1.097c0.286-0.287,0.623-0.494,1.008-0.623
			c0.386-0.129,0.781-0.197,1.196-0.197c0.355,0,0.722,0.059,1.087,0.188c0.365,0.118,0.78,0.396,1.245,0.83l11.543,10.357V65.105
			h5.317v15.596c0,0.622-0.089,1.156-0.267,1.601c-0.179,0.455-0.415,0.82-0.702,1.117c-0.297,0.286-0.633,0.504-1.027,0.632
			C251.592,84.18,251.187,84.249,250.781,84.249z"/>
		<path fill="#F16729" d="M269.035,72.172h12.047v11.761h-12.917c-1.631,0-3.143-0.237-4.526-0.731
			c-1.394-0.484-2.589-1.156-3.587-2.006c-1.009-0.86-1.799-1.868-2.372-3.044c-0.563-1.166-0.851-2.441-0.851-3.815
			c0-1.363,0.287-2.618,0.851-3.755c0.573-1.137,1.363-2.105,2.372-2.926c0.998-0.811,2.193-1.442,3.587-1.888
			c1.384-0.435,2.896-0.662,4.526-0.662h13.48l-3.766,4.902h-9.715c-0.78,0-1.521,0.108-2.194,0.336
			c-0.672,0.228-1.265,0.543-1.759,0.959c-0.494,0.415-0.89,0.898-1.166,1.452c-0.287,0.544-0.425,1.166-0.425,1.839
			c0,0.672,0.138,1.294,0.415,1.848c0.267,0.554,0.652,1.027,1.146,1.423c0.494,0.386,1.087,0.692,1.759,0.909
			c0.682,0.218,1.423,0.326,2.224,0.326h7.115v-2.728h-9.725L269.035,72.172z"/>
	</g>
</g>
</svg>
